# xmcd CD database file
#
# Track frame offsets:
#	150
#	4916
#	20932
#	23872
#	47296
#	68241
#	84326
#	107423
#	127986
#	141360
#	150581
#	172497
#	194922
#	203630
#	219672
#	226877
#	268659
#	284911
#	291150
#	305638
#	321563
#
# Disc length: 4693 seconds
#
# Revision: 0
# Processed by: cddbd v1.5.2PL0 Copyright (c) Steve Scherf et al.
# Submitted via: CDex 1.70beta2
#
DISCID=48125315
DTITLE=Glazz - CirquElectric
DYEAR=1900
DGENRE=Jazz
TTITLE0=Gran desfile
TTITLE1=Pasen y vean
TTITLE2=Montando la carpa
TTITLE3=El lanzador de cuchillos
TTITLE4=Hablemos de negocios
TTITLE5=Nerón, el tragafuegos
TTITLE6=Saltimbanquia
TTITLE7=Alehop
TTITLE8=Cuando sea mayor
TTITLE9=Patrick, el mago novato
TTITLE10=Vértigo
TTITLE11=Atardecer
TTITLE12=Los payasos
TTITLE13=El trapecista
TTITLE14=El hipnotizador
TTITLE15=La adivina Pastora
TTITLE16=Los forzudos
TTITLE17=Desde el lejano Oriente
TTITLE18=En la cuerda floja
TTITLE19=El domador
TTITLE20=Triple mortal
EXTD=
EXTT0=
EXTT1=
EXTT2=
EXTT3=
EXTT4=
EXTT5=
EXTT6=
EXTT7=
EXTT8=
EXTT9=
EXTT10=
EXTT11=
EXTT12=
EXTT13=
EXTT14=
EXTT15=
EXTT16=
EXTT17=
EXTT18=
EXTT19=
EXTT20=
PLAYORDER=
